<svg width="777" height="732" viewBox="0 0 777 732" fill="none" xmlns="http://www.w3.org/2000/svg">
<path d="M492.431 366.225C492.109 462.995 480.001 550.506 460.722 613.751C451.08 645.383 439.669 670.86 427.103 688.384C414.509 705.946 400.972 715.235 387.108 715.189C373.244 715.143 359.769 705.763 347.292 688.118C334.843 670.51 323.602 644.958 314.171 613.262C295.315 549.89 283.791 462.3 284.114 365.531C284.437 268.761 296.544 181.25 315.823 118.005C325.465 86.3731 336.876 60.896 349.443 43.3722C362.036 25.8105 375.574 16.5205 389.438 16.5667C403.302 16.613 416.777 25.9931 429.253 43.6384C441.702 61.2456 452.943 86.7983 462.374 118.494C481.231 181.866 492.754 269.456 492.431 366.225Z" stroke="black" stroke-width="3"/>
<path d="M410.768 461.46C310.301 482.343 216.843 490.385 146.978 486.531C112.034 484.603 83.0801 479.703 62.1253 471.999C41.0882 464.264 28.5598 453.879 25.5912 441.265C22.6225 428.652 29.3217 414.27 44.9255 398.919C60.4682 383.628 84.5224 367.71 115.342 352.113C176.961 320.928 265.31 291.179 365.777 270.296C466.244 249.413 559.702 241.371 629.567 245.225C664.511 247.153 693.465 252.053 714.42 259.757C735.457 267.492 747.985 277.877 750.954 290.491C753.923 303.104 747.223 317.486 731.62 332.837C716.077 348.128 692.023 364.046 661.203 379.643C599.585 410.828 511.235 440.577 410.768 461.46Z" stroke="black" stroke-width="3"/>
<path d="M446.048 447.347C360.457 501.031 276.456 540.356 209.865 560.555C176.558 570.658 147.693 575.951 125.203 575.905C102.636 575.859 86.9396 570.45 79.296 559.672C71.6524 548.894 72.3748 533.188 81.0012 513.577C89.5986 494.032 105.886 471.004 128.603 445.969C174.021 395.914 244.905 338.093 330.497 284.409C416.088 230.725 500.089 191.4 566.68 171.201C599.986 161.098 628.852 155.805 651.342 155.851C673.909 155.897 689.605 161.306 697.249 172.084C704.892 182.862 704.17 198.568 695.544 218.179C686.946 237.724 670.659 260.752 647.942 285.787C602.523 335.842 531.64 393.663 446.048 447.347Z" stroke="black" stroke-width="3"/>
<path d="M473.716 421.895C414.907 501.281 352.003 566.751 297.877 608.432C270.806 629.28 246.002 644.121 225.058 651.804C204.058 659.507 187.324 659.884 175.982 652.448C164.641 645.013 159.223 630.114 159.635 608.912C160.046 587.768 166.26 560.739 177.678 529.63C200.507 467.43 244.02 389.248 302.829 309.861C361.638 230.475 424.542 165.005 478.667 123.324C505.738 102.476 530.543 87.6351 551.486 79.9523C572.487 72.2488 589.221 71.8722 600.562 79.3077C611.904 86.7432 617.321 101.642 616.909 122.844C616.498 143.988 610.285 171.017 598.867 202.126C576.037 264.326 532.525 342.508 473.716 421.895Z" stroke="black" stroke-width="3"/>
<path d="M488.018 394.111C458.408 486.777 420.303 567.412 382.669 622.869C363.847 650.605 345.192 671.969 327.837 685.4C310.443 698.861 294.655 704.134 281.388 700.378C268.12 696.623 258.042 684.029 251.422 663.77C244.817 643.558 241.778 616.053 242.333 583.146C243.444 517.352 258.917 430.311 288.527 337.645C318.137 244.979 356.242 164.344 393.876 108.887C412.698 81.1508 431.353 59.7871 448.708 46.3565C466.102 32.895 481.89 27.6223 495.157 31.3777C508.425 35.1331 518.503 47.7271 525.123 67.9859C531.728 88.1984 534.767 115.703 534.212 148.61C533.102 214.404 517.628 301.445 488.018 394.111Z" stroke="black" stroke-width="3"/>
</svg>
