<svg width="40" height="40" viewBox="0 0 40 40" fill="none" xmlns="http://www.w3.org/2000/svg">
<path d="M6.875 15.25C6.32272 15.25 5.875 15.6977 5.875 16.25C5.875 16.8023 6.32272 17.25 6.875 17.25L6.875 15.25ZM33.125 17.25C33.6773 17.25 34.125 16.8023 34.125 16.25C34.125 15.6977 33.6773 15.25 33.125 15.25L33.125 17.25ZM7.03246 23.6873C6.48018 23.6873 6.03247 24.1351 6.03247 24.6873C6.03247 25.2396 6.48018 25.6873 7.03246 25.6873L7.03246 23.6873ZM33.2825 25.6873C33.8348 25.6873 34.2825 25.2396 34.2825 24.6873C34.2825 24.1351 33.8348 23.6873 33.2825 23.6873L33.2825 25.6873ZM34 20C34 27.732 27.732 34 20 34L20 36C28.8366 36 36 28.8366 36 20L34 20ZM20 34C12.268 34 6 27.732 6 20L4 20C4 28.8366 11.1634 36 20 36L20 34ZM6 20C6 12.268 12.268 6 20 6L20 4C11.1634 4 4 11.1634 4 20L6 20ZM20 6C27.732 6 34 12.268 34 20L36 20C36 11.1634 28.8366 4 20 4L20 6ZM20 34C19.4248 34 18.7979 33.7377 18.1406 33.1023C17.4785 32.4622 16.8366 31.4876 16.2758 30.2058C15.1555 27.6451 14.4375 24.0376 14.4375 20L12.4375 20C12.4375 24.2467 13.1886 28.1392 14.4435 31.0074C15.0702 32.4401 15.8424 33.6622 16.7505 34.5402C17.6635 35.4228 18.763 36 20 36L20 34ZM14.4375 20C14.4375 15.9624 15.1555 12.3549 16.2758 9.79422C16.8366 8.51238 17.4785 7.53784 18.1406 6.89772C18.7979 6.26226 19.4248 6 20 6L20 4C18.763 4 17.6635 4.57721 16.7505 5.45983C15.8424 6.33779 15.0702 7.55995 14.4435 8.99258C13.1886 11.8608 12.4375 15.7533 12.4375 20L14.4375 20ZM20 36C21.237 36 22.3365 35.4228 23.2495 34.5402C24.1576 33.6622 24.9298 32.4401 25.5565 31.0074C26.8114 28.1392 27.5625 24.2467 27.5625 20L25.5625 20C25.5625 24.0376 24.8445 27.6451 23.7242 30.2058C23.1634 31.4876 22.5215 32.4622 21.8594 33.1023C21.2021 33.7377 20.5752 34 20 34L20 36ZM27.5625 20C27.5625 15.7533 26.8114 11.8608 25.5565 8.99258C24.9298 7.55995 24.1576 6.33779 23.2495 5.45983C22.3365 4.57721 21.237 4 20 4L20 6C20.5752 6 21.2021 6.26226 21.8594 6.89772C22.5215 7.53784 23.1634 8.51238 23.7242 9.79422C24.8445 12.3549 25.5625 15.9624 25.5625 20L27.5625 20ZM6.875 17.25L33.125 17.25L33.125 15.25L6.875 15.25L6.875 17.25ZM7.03246 25.6873L33.2825 25.6873L33.2825 23.6873L7.03246 23.6873L7.03246 25.6873Z" fill="black"/>
</svg>
